# xmcd CD database file
#
# Track frame offsets:
#	150
#	13278
#	33531
#	52808
#	67212
#	81915
#	95343
#	107646
#	129399
#	146651
#	161053
#
# Disc length: 2368 seconds
#
# Revision: 0
# Processed by: cddbd v1.5.1PL0 Copyright (c) Steve Scherf et al.
# Submitted via: CDex 1.51
#
DISCID=97093e0b
DTITLE=Blossom Dearie - 1975: From the Meticulous to the Sublime
DYEAR=1975
DGENRE=Jazz
TTITLE0=I'm Hip
TTITLE1=Saving My Feeling For You
TTITLE2=Sweet Georgie Fame
TTITLE3=A Fame Like Yours
TTITLE4=Hey John
TTITLE5=I'm Shadowing You
TTITLE6=Many's The Time
TTITLE7=Send In The Clowns
TTITLE8=Isn't That The Thing To Do?
TTITLE9=Feelin' Groovy
TTITLE10=How Do You Say Auf Wiedersehn?
EXTD=YEAR: 1975
EXTT0=
EXTT1=
EXTT2=
EXTT3=
EXTT4=
EXTT5=
EXTT6=
EXTT7=
EXTT8=
EXTT9=
EXTT10=
PLAYORDER=
